<svg id="レイヤー_1" data-name="レイヤー 1" xmlns="http://www.w3.org/2000/svg" viewBox="0 0 274.81 260.77"><defs><style>.cls-1{fill:#e60012;}.cls-2{fill:#af0003;}</style></defs><path class="cls-1" d="M52.88,266.35a12.16,12.16,0,0,0,6.45-6.47,12,12,0,0,0,1-4.74v-3.59a12,12,0,0,0-1-4.74,12.16,12.16,0,0,0-6.45-6.47,11.93,11.93,0,0,0-4.73-1H32.83v46.84h6.48V267.3h3.55l12,18.93h7.55L50.29,267.11A11.52,11.52,0,0,0,52.88,266.35ZM39.31,245.68H48a5.73,5.73,0,0,1,2.28.45,5.79,5.79,0,0,1,1.85,1.26,6.21,6.21,0,0,1,1.26,1.88,5.77,5.77,0,0,1,.46,2.28v3.59a5.68,5.68,0,0,1-.46,2.27,6.09,6.09,0,0,1-1.26,1.88,5.81,5.81,0,0,1-1.85,1.27A5.73,5.73,0,0,1,48,261H39.31Z" transform="translate(-27.48 -26.08)"/><polygon class="cls-1" points="45.41 260.15 72.85 260.15 72.85 253.87 51.88 253.87 51.88 239.89 68.86 239.89 68.86 233.6 51.88 233.6 51.88 219.6 72.85 219.6 72.85 213.31 45.41 213.31 45.41 260.15"/><path class="cls-1" d="M137,242.94a12.26,12.26,0,0,0-3.87-2.6,12,12,0,0,0-4.74-1H113.06v46.84h15.29a12,12,0,0,0,4.74-1,12.26,12.26,0,0,0,3.87-2.6,12.46,12.46,0,0,0,2.6-3.85,11.93,11.93,0,0,0,.95-4.73V251.55a12,12,0,0,0-.95-4.74A12.43,12.43,0,0,0,137,242.94Zm-17.43,2.74h8.63a5.64,5.64,0,0,1,2.27.45,6.06,6.06,0,0,1,1.88,1.27,6.13,6.13,0,0,1,1.27,1.87,5.73,5.73,0,0,1,.45,2.28V274.1a5.68,5.68,0,0,1-.45,2.27,5.83,5.83,0,0,1-1.26,1.86,6.39,6.39,0,0,1-1.88,1.26,5.73,5.73,0,0,1-2.28.45h-8.63Z" transform="translate(-27.48 -26.08)"/><polygon class="cls-2" points="143.27 247.69 130.55 213.31 126.38 213.31 126.38 260.15 132.85 260.15 132.85 236.74 141.38 260.15 145.22 260.15 153.69 236.71 153.69 260.15 160.16 260.15 160.16 213.31 155.95 213.31 143.27 247.69"/><rect class="cls-2" x="176.66" y="213.31" width="6.47" height="46.84"/><path class="cls-2" d="M249.13,242.32a12.28,12.28,0,0,0-3.85-2.6,11.93,11.93,0,0,0-4.73-.95h-3.16a12,12,0,0,0-4.74.95,12.09,12.09,0,0,0-6.46,6.45,11.77,11.77,0,0,0-1,4.73v23.82a11.77,11.77,0,0,0,1,4.73,12.09,12.09,0,0,0,6.46,6.45,12,12,0,0,0,4.74,1h3.16a11.93,11.93,0,0,0,4.73-1,12.21,12.21,0,0,0,6.45-6.45,11.93,11.93,0,0,0,1-4.73V271.9l-6.47-1v3.87a5.68,5.68,0,0,1-.46,2.27,6.09,6.09,0,0,1-1.26,1.88,5.81,5.81,0,0,1-1.85,1.27,5.73,5.73,0,0,1-2.28.45h-2.78a5.76,5.76,0,0,1-2.28-.45,6.32,6.32,0,0,1-1.87-1.27,6.24,6.24,0,0,1-1.27-1.88,5.68,5.68,0,0,1-.45-2.27V250.9a5.76,5.76,0,0,1,.45-2.28,6.07,6.07,0,0,1,1.26-1.85,6.33,6.33,0,0,1,1.88-1.26,5.76,5.76,0,0,1,2.28-.45h2.78a5.73,5.73,0,0,1,2.28.45,6,6,0,0,1,1.86,1.26,5.92,5.92,0,0,1,1.25,1.85,5.56,5.56,0,0,1,.46,2.28v3.86l6.47-1V250.9a11.93,11.93,0,0,0-1-4.73A12.28,12.28,0,0,0,249.13,242.32Z" transform="translate(-27.48 -26.08)"/><path class="cls-2" d="M280.76,239.39h-4l-13.72,46.84h6.75l2.9-10.33h12.17l2.94,10.33h6.71Zm2.37,30.22h-8.62l4.3-15.11Z" transform="translate(-27.48 -26.08)"/><path class="cls-1" d="M297.11,132.73a14,14,0,0,0-19-6,14.93,14.93,0,0,0-3.7,2.66l-35.59,31.78L287.49,153v0a14.22,14.22,0,0,0,9.63-20.29Z" transform="translate(-27.48 -26.08)"/><path class="cls-2" d="M264.08,77.53a14,14,0,0,0-19.75,2.54,14.47,14.47,0,0,0-1.73,2.81h0l0,.09c-.15.33-.3.65-.43,1l-18.91,43.9L263.93,100l0,0a14,14,0,0,0,2.55-2.49A14.21,14.21,0,0,0,264.08,77.53Z" transform="translate(-27.48 -26.08)"/><path class="cls-2" d="M92.31,196.27l-45.91-13a14.5,14.5,0,0,0-4.5-.77,14,14,0,0,0-14.42,13.73,14.23,14.23,0,0,0,17.54,14v0Z" transform="translate(-27.48 -26.08)"/><path class="cls-1" d="M90.93,161.13,55.34,129.35a14.93,14.93,0,0,0-3.7-2.66,14,14,0,0,0-19,6A14.23,14.23,0,0,0,42.28,153v0Z" transform="translate(-27.48 -26.08)"/><path class="cls-2" d="M106.55,127.86,87.64,84c-.13-.34-.28-.66-.43-1l0-.09h0a14.47,14.47,0,0,0-1.73-2.81,14,14,0,0,0-19.76-2.54,14.22,14.22,0,0,0-2.36,20A14,14,0,0,0,65.87,100l0,0Z" transform="translate(-27.48 -26.08)"/><path class="cls-1" d="M213.12,185.8c-7-6.87-11.19-15.74-11.19-25.44a33.25,33.25,0,0,1,1.57-10.08,37.39,37.39,0,0,1,8.9-14.62s-40.33,15.16-38.87,46.16h0a20.3,20.3,0,0,0,3.17,9.16l-.08-.06a38.33,38.33,0,0,0,4,5.09h48.48A47.66,47.66,0,0,1,213.12,185.8Z" transform="translate(-27.48 -26.08)"/><path class="cls-2" d="M287.86,182.52a14.49,14.49,0,0,0-4.49.77l-45.91,13,47.29,14v0a14.23,14.23,0,0,0,17.54-14A14,14,0,0,0,287.86,182.52Z" transform="translate(-27.48 -26.08)"/><path class="cls-1" d="M215.5,63.06c-3.69-18.44-19.75-34.22-40.5-36.65a24.42,24.42,0,0,0-2.91-.27c-.8,0-1.59-.06-2.39-.06a43.68,43.68,0,0,0-37.81,21.78h0s-.64.94-.86,1.2a0,0,0,0,0,0,0c-2.5,3-11.47,13.26-20.9,16l-.51.11,1.42.13c29.84,4.62,40.77-3.17,44.28-7.14A19.32,19.32,0,0,1,160,54.33a13.07,13.07,0,0,1,2.71-.86h.05c.24-.05.48-.08.7-.11h0a12.25,12.25,0,0,1,1.37-.08c4-.27,13.87.42,16.48,12.94,3.23,15.58-14.87,28.13-37.08,44.19-2,1.75-4,3.46-5.83,5.08-1.11,1-2.19,2-3.18,2.91C114.26,138.11,96,163.5,106.7,196h42.63a42.58,42.58,0,0,1-5.19-33.69c1.28-6.55,4.82-13.57,11.84-20.75,6.76-6.9,14.79-12.82,23-18.3,2-1.34,4-2.66,6.06-4,4.31-2.77,8.59-5.46,12.68-8.14a38.34,38.34,0,0,0,8.11-7.62h0l.09-.12a36.79,36.79,0,0,0,3.28-5C217.3,84.89,218,72.93,215.5,63.06Z" transform="translate(-27.48 -26.08)"/></svg>