<svg id="レイヤー_1" data-name="レイヤー 1" xmlns="http://www.w3.org/2000/svg" viewBox="0 0 428.54 70.35"><defs><style>.cls-1{fill:#e60012;}.cls-2{fill:#af0003;}</style></defs><path class="cls-1" d="M138.2,68a5.34,5.34,0,0,0-7.24-2.3,6,6,0,0,0-1.41,1L116,78.78l18.54-3.08h0a5.29,5.29,0,0,0,1.28-.45A5.42,5.42,0,0,0,138.2,68Z" transform="translate(-35.44 -27.31)"/><path class="cls-2" d="M125.61,46.92a5.34,5.34,0,0,0-7.53,1,5.72,5.72,0,0,0-.66,1.07h0v0c-.06.12-.12.25-.17.37L110,66.1l15.51-10.61h0a5.41,5.41,0,0,0,.07-8.56Z" transform="translate(-35.44 -27.31)"/><path class="cls-2" d="M60.14,92.18l-17.49-5a5.75,5.75,0,0,0-1.72-.3,5.33,5.33,0,0,0-5.49,5.24,5.45,5.45,0,0,0,6.68,5.35h0Z" transform="translate(-35.44 -27.31)"/><path class="cls-1" d="M59.62,78.78,46.05,66.67a5.63,5.63,0,0,0-1.41-1A5.33,5.33,0,0,0,37.41,68a5.42,5.42,0,0,0,2.39,7.28,5,5,0,0,0,1.28.45h0Z" transform="translate(-35.44 -27.31)"/><path class="cls-2" d="M65.57,66.1,58.36,49.37c0-.12-.1-.25-.16-.37l0,0h0a5.24,5.24,0,0,0-.66-1.07,5.32,5.32,0,0,0-7.52-1,5.42,5.42,0,0,0-.91,7.61,5.17,5.17,0,0,0,1,.95h0Z" transform="translate(-35.44 -27.31)"/><path class="cls-1" d="M106.19,88.18a13.54,13.54,0,0,1-4.27-9.69,12.59,12.59,0,0,1,.6-3.84,14.25,14.25,0,0,1,3.39-5.57S90.54,74.85,91.1,86.67h0a7.79,7.79,0,0,0,1.21,3.5l0,0a14.66,14.66,0,0,0,1.51,1.94h18.48A17.93,17.93,0,0,1,106.19,88.18Z" transform="translate(-35.44 -27.31)"/><path class="cls-2" d="M134.67,86.93a5.68,5.68,0,0,0-1.71.3l-17.5,5,18,5.34h0a5.53,5.53,0,0,0,1.35.14,5.42,5.42,0,0,0,5.34-5.49A5.35,5.35,0,0,0,134.67,86.93Z" transform="translate(-35.44 -27.31)"/><path class="cls-1" d="M107.09,41.41a17.89,17.89,0,0,0-15.43-14,9.13,9.13,0,0,0-1.11-.1c-.3,0-.61,0-.91,0a16.64,16.64,0,0,0-14.41,8.3h0s-.25.36-.33.46h0c-1,1.16-4.38,5.05-8,6.1l-.19,0,.54.05C78.65,44,82.82,41.06,84.16,39.55a7.24,7.24,0,0,1,1.77-1.47,5.43,5.43,0,0,1,1-.33h0l.27,0h0a4.71,4.71,0,0,1,.52,0c1.54-.11,5.29.16,6.28,4.93,1.24,5.94-5.66,10.72-14.13,16.84-.78.67-1.53,1.32-2.22,1.94-.43.38-.83.75-1.21,1.11-8,7.51-14.94,17.19-10.87,29.57H81.88a16.24,16.24,0,0,1-2-12.84,15.64,15.64,0,0,1,4.51-7.9,54.69,54.69,0,0,1,8.76-7l2.32-1.51c1.64-1.06,3.27-2.08,4.83-3.1a15.13,15.13,0,0,0,3.09-2.9h0l0-.05a12.78,12.78,0,0,0,1.25-1.91C107.78,49.73,108.06,45.17,107.09,41.41Z" transform="translate(-35.44 -27.31)"/><path class="cls-1" d="M190.94,68.05a13.84,13.84,0,0,0,4.35-2.93,14,14,0,0,0,2.94-4.38,13.59,13.59,0,0,0,1.07-5.35V51.33A13.59,13.59,0,0,0,198.23,46a13.68,13.68,0,0,0-7.29-7.31,13.34,13.34,0,0,0-5.34-1.08H168.3V90.51h7.31V69.13h4l13.6,21.38h8.53L188,68.92A13.29,13.29,0,0,0,190.94,68.05ZM175.61,44.7h9.78a6.44,6.44,0,0,1,2.57.51,6.32,6.32,0,0,1,2.09,1.43,6.89,6.89,0,0,1,1.43,2.12,6.44,6.44,0,0,1,.51,2.57v4.06a6.44,6.44,0,0,1-.51,2.57,6.89,6.89,0,0,1-1.43,2.12A6.64,6.64,0,0,1,188,61.51a6.44,6.44,0,0,1-2.57.51h-9.78Z" transform="translate(-35.44 -27.31)"/><polygon class="cls-1" points="178.11 63.2 209.12 63.2 209.12 56.1 185.42 56.1 185.42 40.31 204.61 40.31 204.61 33.21 185.42 33.21 185.42 17.38 209.12 17.38 209.12 10.28 178.11 10.28 178.11 63.2"/><path class="cls-1" d="M285.94,41.6a13.75,13.75,0,0,0-4.38-2.93,13.43,13.43,0,0,0-5.35-1.08H258.94V90.51h17.27a13.59,13.59,0,0,0,5.35-1.07,13.89,13.89,0,0,0,4.38-2.94,13.73,13.73,0,0,0,2.93-4.35A13.48,13.48,0,0,0,290,76.81V51.33A13.6,13.6,0,0,0,288.87,46,13.86,13.86,0,0,0,285.94,41.6Zm-19.69,3.1H276a6.44,6.44,0,0,1,2.57.51,6.79,6.79,0,0,1,3.55,3.55,6.44,6.44,0,0,1,.51,2.57V76.81a6.41,6.41,0,0,1-.51,2.57,6.32,6.32,0,0,1-1.43,2.09,6.89,6.89,0,0,1-2.12,1.43,6.44,6.44,0,0,1-2.57.51h-9.75Z" transform="translate(-35.44 -27.31)"/><polygon class="cls-2" points="288.68 49.12 274.31 10.28 269.59 10.28 269.59 63.2 276.91 63.2 276.91 36.75 286.54 63.2 290.89 63.2 300.45 36.72 300.45 63.2 307.76 63.2 307.76 10.28 303.01 10.28 288.68 49.12"/><rect class="cls-2" x="326.41" y="10.28" width="7.31" height="52.92"/><path class="cls-2" d="M412.67,40.91A13.87,13.87,0,0,0,408.32,38,13.52,13.52,0,0,0,403,36.89h-3.57a13.78,13.78,0,0,0-9.73,4,13.84,13.84,0,0,0-2.93,4.35,13.31,13.31,0,0,0-1.08,5.34V77.51a13.34,13.34,0,0,0,1.08,5.34,13.68,13.68,0,0,0,7.31,7.29,13.59,13.59,0,0,0,5.35,1.07H403a13.51,13.51,0,0,0,5.34-1.07,13.82,13.82,0,0,0,7.29-7.29,13.51,13.51,0,0,0,1.07-5.34V74.33l-7.31-1.19v4.37a6.41,6.41,0,0,1-.51,2.57,7.06,7.06,0,0,1-1.43,2.13,6.56,6.56,0,0,1-2.09,1.42,6.45,6.45,0,0,1-2.57.52h-3.15a6.45,6.45,0,0,1-2.57-.52,6.83,6.83,0,0,1-2.12-1.43,7,7,0,0,1-1.43-2.12,6.44,6.44,0,0,1-.51-2.57V50.6A6.44,6.44,0,0,1,393.5,48a6.32,6.32,0,0,1,1.43-2.09,6.89,6.89,0,0,1,2.12-1.43,6.44,6.44,0,0,1,2.57-.51h3.15a6.44,6.44,0,0,1,2.57.51A6.68,6.68,0,0,1,408.86,48a6.41,6.41,0,0,1,.51,2.57V55l7.31-1.13V50.6a13.51,13.51,0,0,0-1.07-5.34A13.75,13.75,0,0,0,412.67,40.91Z" transform="translate(-35.44 -27.31)"/><path class="cls-2" d="M448.4,37.59h-4.47l-15.5,52.92H436l3.29-11.67h13.74l3.32,11.67H464Zm2.69,34.15h-9.75l4.86-17.08Z" transform="translate(-35.44 -27.31)"/></svg>