<svg id="レイヤー_1" data-name="レイヤー 1" xmlns="http://www.w3.org/2000/svg" viewBox="0 0 497.48 127.49"><defs><style>.cls-1{fill:#e60012;}.cls-2{fill:#fff;}</style></defs><rect class="cls-1" width="497.48" height="127.49"/><path class="cls-2" d="M307.56,309.09a5.14,5.14,0,0,1-1.28.45h0l-18.55,3.08,13.57-12.11a5.39,5.39,0,0,1,1.41-1,5.33,5.33,0,0,1,7.23,2.3A5.42,5.42,0,0,1,307.56,309.09Zm-10.2-28.32a5.32,5.32,0,0,0-7.52,1,5.78,5.78,0,0,0-.67,1.07h0v0c-.06.12-.11.25-.16.37L281.79,300l15.52-10.61h0a4.85,4.85,0,0,0,1-.95A5.41,5.41,0,0,0,297.36,280.77ZM231.9,326l-17.5-4.95a5.68,5.68,0,0,0-1.71-.3,5.34,5.34,0,0,0-5.5,5.24,5.41,5.41,0,0,0,5.34,5.49,5.53,5.53,0,0,0,1.35-.14h0Zm-.53-13.4-13.56-12.11a5.74,5.74,0,0,0-1.41-1,5.34,5.34,0,0,0-7.24,2.3,5.42,5.42,0,0,0,2.39,7.28,5.29,5.29,0,0,0,1.28.45h0ZM237.32,300l-7.2-16.73c-.05-.12-.11-.25-.17-.37v0h0a6.3,6.3,0,0,0-.66-1.07,5.34,5.34,0,0,0-7.53-1,5.41,5.41,0,0,0,.07,8.56h0ZM277.94,322a13.53,13.53,0,0,1-4.26-9.69,12.58,12.58,0,0,1,.59-3.84,14.16,14.16,0,0,1,3.4-5.57s-15.37,5.77-14.82,17.59h0a7.79,7.79,0,0,0,1.21,3.5l0,0a14.74,14.74,0,0,0,1.52,1.94H284A17.93,17.93,0,0,1,277.94,322Zm28.49-1.25a5.75,5.75,0,0,0-1.72.3L287.22,326l18,5.34h0a5.45,5.45,0,0,0,6.68-5.35A5.33,5.33,0,0,0,306.43,320.78Zm-27.58-45.52a17.91,17.91,0,0,0-15.44-14,9.13,9.13,0,0,0-1.11-.1c-.3,0-.6,0-.91,0a16.66,16.66,0,0,0-14.41,8.3h0s-.24.36-.33.46h0c-1,1.16-4.37,5.05-8,6.1l-.19,0,.54.05c11.37,1.76,15.54-1.21,16.88-2.72a7.05,7.05,0,0,1,1.78-1.47,5.13,5.13,0,0,1,1-.33h0l.26,0h0a4.84,4.84,0,0,1,.53,0c1.54-.11,5.28.16,6.28,4.93,1.23,5.94-5.67,10.72-14.14,16.84-.78.67-1.52,1.32-2.22,1.94-.42.38-.83.75-1.21,1.11-8,7.51-14.94,17.19-10.87,29.57h16.25a16.16,16.16,0,0,1-2.52-8.68,16.36,16.36,0,0,1,.54-4.16,15.78,15.78,0,0,1,4.51-7.91,54.83,54.83,0,0,1,8.77-7l2.31-1.51c1.64-1.06,3.27-2.08,4.83-3.1a14.41,14.41,0,0,0,3.09-2.91h0l0-.05a12.85,12.85,0,0,0,1.26-1.91C279.53,283.58,279.81,279,278.85,275.26Zm80.92,27.51,13.73,21.59H365L351.38,303h-4v21.38h-7.31V271.44h17.3a13.31,13.31,0,0,1,5.34,1.08,14.05,14.05,0,0,1,4.36,2.93,13.75,13.75,0,0,1,2.93,4.38,13.43,13.43,0,0,1,1.08,5.35v4.06a13.43,13.43,0,0,1-1.08,5.35,13.65,13.65,0,0,1-2.93,4.37,13.91,13.91,0,0,1-4.36,2.94A13.13,13.13,0,0,1,359.77,302.77Zm-12.41-6.9h9.78a6.41,6.41,0,0,0,2.57-.51,6.8,6.8,0,0,0,2.1-1.43,7,7,0,0,0,1.42-2.12,6.45,6.45,0,0,0,.52-2.57v-4.06a6.45,6.45,0,0,0-.52-2.57,7,7,0,0,0-1.42-2.12,6.46,6.46,0,0,0-4.67-1.94h-9.78Zm37.94,28.49h31v-7.1h-23.7V301.47H411.8v-7.1H392.61V278.55h23.7v-7.11h-31Zm75.33-44.53a13.59,13.59,0,0,1,1.07,5.35v25.48a13.31,13.31,0,0,1-1.08,5.34,13.67,13.67,0,0,1-2.93,4.35,13.84,13.84,0,0,1-4.37,2.94,13.61,13.61,0,0,1-5.36,1.07H430.69V271.44H448a13.47,13.47,0,0,1,5.36,1.08,13.63,13.63,0,0,1,7.31,7.31ZM438,317.26h9.75a6.41,6.41,0,0,0,2.57-.51,6.94,6.94,0,0,0,2.13-1.43,6.53,6.53,0,0,0,1.94-4.66V285.18a6.45,6.45,0,0,0-.52-2.57,6.83,6.83,0,0,0-1.43-2.12,7,7,0,0,0-2.12-1.43,6.41,6.41,0,0,0-2.57-.51H438Zm57.87-7L481.5,271.44h-4.72v52.92h7.32V297.91l9.63,26.45h4.35l9.56-26.48v26.48H515V271.44H510.2Zm37.73,14.08h7.31V271.44H533.6Zm50.82-49.61a13.89,13.89,0,0,0-4.35-2.93,13.52,13.52,0,0,0-5.34-1.08h-3.56a13.61,13.61,0,0,0-5.36,1.08,13.81,13.81,0,0,0-4.37,2.93,14,14,0,0,0-2.94,4.36,13.47,13.47,0,0,0-1.07,5.34v26.91a13.51,13.51,0,0,0,1.07,5.34,13.77,13.77,0,0,0,7.31,7.29,13.61,13.61,0,0,0,5.36,1.07h3.56a13.51,13.51,0,0,0,5.34-1.07,13.82,13.82,0,0,0,7.29-7.29,13.52,13.52,0,0,0,1.08-5.34v-3.19L581.12,307v4.38a6.44,6.44,0,0,1-.51,2.57,7.06,7.06,0,0,1-1.43,2.13,6.53,6.53,0,0,1-4.66,1.94h-3.14a6.5,6.5,0,0,1-2.58-.52,6.68,6.68,0,0,1-2.11-1.43,6.86,6.86,0,0,1-1.44-2.12,6.44,6.44,0,0,1-.51-2.57V284.45a6.41,6.41,0,0,1,.51-2.57,6.64,6.64,0,0,1,1.43-2.09,7,7,0,0,1,2.12-1.43,6.49,6.49,0,0,1,2.58-.51h3.14a6.41,6.41,0,0,1,2.57.51,6.66,6.66,0,0,1,2.1,1.42,6.83,6.83,0,0,1,1.42,2.1,6.37,6.37,0,0,1,.51,2.57v4.36l7.32-1.13v-3.23a13.52,13.52,0,0,0-1.08-5.34A13.91,13.91,0,0,0,584.42,274.75Zm51.31,49.61h-7.58l-3.32-11.67H611.08l-3.28,11.67h-7.62l15.5-52.92h4.48ZM618,288.51l-4.86,17.08h9.74Z" transform="translate(-171.75 -233.85)"/></svg>